<svg xmlns="http://www.w3.org/2000/svg" xmlns:xlink="http://www.w3.org/1999/xlink" version="1.1" id="Layer_1" x="0px" y="0px" viewBox="0 0 1080 1080" style="enable-background:new 0 0 1080 1080;" xml:space="preserve">
<style type="text/css">
	.st0{fill-rule:evenodd;clip-rule:evenodd;fill:#FFFFFF;}
</style>
<path class="st0" d="M304,120.5c-88.4,0-160.1,71.7-160.1,160.1v417.3c0,88.4,71.7,160.1,160.1,160.1h96.6c23.1,0,45.1,10,60.3,27.4  l55.2,63.2c12.6,14.5,35.1,14.5,47.7,0l55.2-63.2c15.2-17.4,37.2-27.4,60.3-27.4H776c88.4,0,160.1-71.7,160.1-160.1V280.6  c0-88.4-71.7-160.1-160.1-160.1H304z M410.2,579.9c-21.6,0-44.4-0.1-44.4,17.5c0,69.1,74,156.8,158.4,156.8h31.7  c84.5,0,158.4-87.7,158.4-156.8c0-17.6-22.8-17.5-44.4-17.5c-1,0-2.1,0-3.1,0H413.3C412.2,579.9,411.2,579.9,410.2,579.9z"/>
</svg>